<svg width="21" height="21" viewBox="0 0 21 21" fill="none" xmlns="http://www.w3.org/2000/svg">
<path d="M17.094 2.85599L10.941 9.00899C10.689 9.26099 10.29 9.26099 10.059 9.00899L3.906 2.85599C3.654 2.60399 3.255 2.60399 3.024 2.85599C2.772 3.10799 2.772 3.50699 3.024 3.73799L9.177 9.89099C9.429 10.143 9.429 10.542 9.177 10.773L3.003 16.947C2.751 17.199 2.751 17.598 3.003 17.829C3.255 18.081 3.654 18.081 3.885 17.829L10.038 11.676C10.29 11.424 10.689 11.424 10.92 11.676L17.094 17.85C17.346 18.102 17.745 18.102 17.976 17.85C18.228 17.598 18.228 17.199 17.976 16.968L11.844 10.794C11.592 10.542 11.592 10.143 11.844 9.91199L17.997 3.75899C18.249 3.50699 18.249 3.10799 17.997 2.87699C17.745 2.62499 17.346 2.62499 17.094 2.85599Z" fill="black"/>
</svg>
